<?xml version="1.0" encoding="UTF-8" standalone="no"?>
<svg width="900px" height="298px" viewBox="0 0 900 298" version="1.1" xmlns="http://www.w3.org/2000/svg" xmlns:xlink="http://www.w3.org/1999/xlink">
    <!-- Generator: Sketch 39.1 (31720) - http://www.bohemiancoding.com/sketch -->
    <title>perun-logo copy</title>
    <desc>Created with Sketch.</desc>
    <defs>
        <polygon id="path-1" points="133.5 0 267 267 0 267"></polygon>
        <mask id="mask-2" maskContentUnits="userSpaceOnUse" maskUnits="objectBoundingBox" x="0" y="0" width="267" height="267" fill="white">
            <use xlink:href="#path-1"></use>
        </mask>
        <polygon id="path-3" points="218 67 318 267 118 267"></polygon>
        <mask id="mask-4" maskContentUnits="userSpaceOnUse" maskUnits="objectBoundingBox" x="0" y="0" width="200" height="200" fill="white">
            <use xlink:href="#path-3"></use>
        </mask>
        <polygon id="path-5" points="140 147 200 267 80 267"></polygon>
        <mask id="mask-6" maskContentUnits="userSpaceOnUse" maskUnits="objectBoundingBox" x="0" y="0" width="120" height="120" fill="white">
            <use xlink:href="#path-5"></use>
        </mask>
    </defs>
    <g id="Page-1" stroke="none" stroke-width="1" fill="none" fill-rule="evenodd">
        <g id="perun-logo-copy">
            <g id="Group" transform="translate(571.000000, 15.000000)" stroke="#FFFFFF" stroke-opacity="0.539458786" stroke-width="60">
                <use id="Triangle-1" mask="url(#mask-2)" fill-opacity="0.840000033" fill="#DCF9BB" xlink:href="#path-1"></use>
                <use id="Triangle-1-Copy-2" mask="url(#mask-4)" fill-opacity="0.59692029" fill="#EF81E7" xlink:href="#path-3"></use>
                <use id="Triangle-1-Copy" mask="url(#mask-6)" fill-opacity="0.377292799" fill="#465292" xlink:href="#path-5"></use>
            </g>
            <path d="M79.5030056,273.023517 L53.3892185,273.023517 L53.3892185,98.4673584 L79.5030056,98.4673584 L79.5030056,110.769854 C89.7938235,100.479036 101.477208,95.333704 114.553511,95.333704 C130.1058,95.333704 142.911099,101.059336 152.969793,112.510773 C163.183236,123.884835 168.289882,138.237602 168.289882,155.569506 C168.289882,172.514537 163.221923,186.635184 153.085854,197.931872 C143.02716,209.151184 130.337921,214.760757 115.017756,214.760757 C101.786704,214.760757 89.9485726,209.460678 79.5030056,198.860362 L79.5030056,273.023517 Z M141.595788,155.685567 C141.595788,144.853127 138.655599,136.032559 132.775131,129.223596 C126.817289,122.33726 119.312068,118.894143 110.259244,118.894143 C100.664797,118.894143 92.8887692,122.2212 86.9309272,128.875413 C80.9730853,135.529626 77.994209,144.272821 77.994209,155.105261 C77.994209,165.705577 80.9730853,174.448773 86.9309272,181.335109 C92.8113946,188.066697 100.548736,191.43244 110.143182,191.43244 C119.196007,191.43244 126.662541,188.02801 132.543009,181.219048 C138.578225,174.410086 141.595788,165.899011 141.595788,155.685567 L141.595788,155.685567 Z M298.858817,161.140447 L217.848046,161.140447 C218.544417,170.425396 221.56198,177.814556 226.900826,183.308151 C232.239671,188.724371 239.087218,191.43244 247.443672,191.43244 C253.943136,191.43244 259.320588,189.884972 263.576189,186.789989 C267.754416,183.695006 272.51288,177.969374 277.851726,169.61292 L299.903368,181.915416 C296.498887,187.718508 292.901024,192.68975 289.10967,196.82929 C285.318316,200.968829 281.256212,204.373259 276.923236,207.042682 C272.59026,209.712105 267.909168,211.665783 262.879821,212.903776 C257.850474,214.141769 252.395649,214.760757 246.515181,214.760757 C229.647525,214.760757 216.107178,209.344618 205.893735,198.512178 C195.680292,187.602364 190.573646,173.133536 190.573646,155.105261 C190.573646,137.231735 195.525545,122.762907 205.42949,111.698344 C215.410809,100.788529 228.641663,95.333704 245.122446,95.333704 C261.757979,95.333704 274.911459,100.633783 284.58328,111.234099 C294.177727,121.75704 298.974878,136.341928 298.974878,154.9892 L298.858817,161.140447 Z M272.048662,139.785173 C268.412057,125.85775 259.630175,118.894143 245.702752,118.894143 C242.530395,118.894143 239.551519,119.377727 236.766034,120.344909 C233.98055,121.312091 231.44657,122.704812 229.164021,124.523115 C226.881471,126.341417 224.927792,128.527216 223.302926,131.080577 C221.67806,133.633938 220.440086,136.535441 219.588965,139.785173 L272.048662,139.785173 Z M327.409891,98.4673584 L353.523678,98.4673584 L353.523678,108.564689 C358.320901,103.535342 362.576439,100.092226 366.290418,98.2352359 C370.081772,96.3008716 374.56943,95.333704 379.753526,95.333704 C386.639863,95.333704 393.83559,97.5775329 401.340923,102.065258 L389.386612,125.973881 C384.434639,122.414651 379.598801,120.635062 374.878952,120.635062 C360.642031,120.635062 353.523678,131.389966 353.523678,152.900097 L353.523678,211.511041 L327.409891,211.511041 L327.409891,98.4673584 Z M446.024514,98.4673584 L446.024514,163.345612 C446.024514,182.070258 453.413675,191.43244 468.192218,191.43244 C482.970761,191.43244 490.359922,182.070258 490.359922,163.345612 L490.359922,98.4673584 L516.473709,98.4673584 L516.473709,163.925918 C516.473709,172.978743 515.351794,180.793457 513.107932,187.370296 C510.941444,193.250763 507.188833,198.550842 501.849988,203.27069 C493.029287,210.930773 481.810143,214.760757 468.192218,214.760757 C454.651668,214.760757 443.47121,210.930773 434.650509,203.27069 C429.234289,198.550842 425.404306,193.250763 423.160443,187.370296 C420.993955,182.108825 419.910727,174.29411 419.910727,163.925918 L419.910727,98.4673584 L446.024514,98.4673584 Z M549.435111,98.4673584 L575.664959,98.4673584 L575.664959,108.912873 C584.795159,99.8600485 595.085822,95.333704 606.537259,95.333704 C619.690936,95.333704 629.942913,99.4731814 637.293497,107.75226 C643.638212,114.793346 646.810522,126.283298 646.810522,142.222459 L646.810522,211.511041 L620.580673,211.511041 L620.580673,148.373707 C620.580673,137.231769 619.033205,129.533115 615.938222,125.277513 C612.920614,120.944537 607.427102,118.778082 599.457521,118.778082 C590.791569,118.778082 584.640383,121.640898 581.003778,127.366616 C577.444548,133.01496 575.664959,142.88007 575.664959,156.962241 L575.664959,211.511041 L549.435111,211.511041 L549.435111,98.4673584 Z" id="perun" fill="#4A234B"></path>
        </g>
    </g>
</svg>